<?xml version="1.0" encoding="utf-8"?>
<!-- Generator: Adobe Illustrator 22.0.1, SVG Export Plug-In . SVG Version: 6.00 Build 0)  -->
<svg version="1.1" id="レイヤー_1" xmlns="http://www.w3.org/2000/svg" xmlns:xlink="http://www.w3.org/1999/xlink" x="0px"
	 y="0px" viewBox="0 0 115 103.8" style="enable-background:new 0 0 115 103.8;" xml:space="preserve">
<style type="text/css">
	.st0{fill-rule:evenodd;clip-rule:evenodd;fill:none;stroke:#868585;stroke-width:2;stroke-miterlimit:10;}
	.st1{fill:none;stroke:#868585;stroke-width:2;stroke-linecap:round;stroke-miterlimit:10;}
	.st2{fill:#868585;}
	.st3{fill:none;stroke:#868585;stroke-width:2;stroke-miterlimit:10;}
</style>
<g>
	<path class="st0" d="M111,102.8H76c-1.7,0-3-1.3-3-3V32.1c0-1.6,1.3-3,3-3h35c1.7,0,3,1.3,3,3v67.8
		C114,101.5,112.7,102.8,111,102.8z"/>
	<line class="st0" x1="72.9" y1="37.8" x2="114.2" y2="37.8"/>
	<line class="st0" x1="114.2" y1="94.1" x2="72.9" y2="94.1"/>
	<line class="st1" x1="89.4" y1="33.7" x2="97.6" y2="33.7"/>
	<circle class="st2" cx="93.5" cy="98.6" r="1.5"/>
	<line class="st1" x1="87" y1="46.9" x2="82.9" y2="51"/>
	<line class="st1" x1="84.5" y1="43.4" x2="78.8" y2="49"/>
</g>
<path class="st3" d="M68,71H4c-1.7,0-3-1.3-3-3V4c0-1.7,1.3-3,3-3h86.5c1.7,0,3,1.3,3,3v20.1"/>
<path class="st3" d="M68,80.7c-8.5,0-9.1-9.7-9.1-9.7"/>
<path class="st3" d="M35.8,71c0,0-1.7,9.7-8.3,9.7h-5.9c-2.9,0-5.2,2.3-5.2,5.2H68"/>
<line class="st3" x1="1" y1="57" x2="68" y2="57"/>
</svg>
